<?xml version="1.0" standalone="no"?>
<!DOCTYPE svg PUBLIC "-//W3C//DTD SVG 20010904//EN"
 "http://www.w3.org/TR/2001/REC-SVG-20010904/DTD/svg10.dtd">
<svg version="1.0" xmlns="http://www.w3.org/2000/svg"
 width="552.000000pt" height="927.000000pt" viewBox="0 0 552.000000 927.000000"
 preserveAspectRatio="xMidYMid meet">
<metadata>
Created by potrace 1.13, written by Peter Selinger 2001-2015
</metadata>
<g transform="translate(0.000000,927.000000) scale(0.100000,-0.100000)"
fill="#000000" stroke="none">
<path d="M2960 8955 c-245 -42 -535 -145 -714 -254 -32 -20 -70 -42 -85 -50
-93 -50 -344 -268 -501 -436 -286 -306 -543 -719 -704 -1127 l-58 -148 -42
-11 c-236 -63 -481 -281 -552 -490 -36 -106 -57 -235 -51 -309 12 -139 69
-318 128 -400 17 -24 17 -29 3 -95 -24 -109 -21 -214 10 -335 31 -122 57 -182
121 -280 87 -135 217 -249 362 -317 82 -39 93 -47 93 -75 0 -71 85 -197 163
-243 97 -56 342 -125 445 -125 l45 0 -51 -47 c-135 -128 -307 -383 -462 -685
-40 -79 -56 -100 -83 -112 -89 -39 -215 -154 -251 -231 -27 -58 -41 -150 -29
-201 11 -47 11 -47 -35 -108 -104 -141 -164 -334 -163 -531 0 -289 88 -523
256 -687 75 -72 217 -170 283 -194 26 -10 52 -21 57 -25 13 -9 252 -69 276
-69 23 0 23 6 0 -82 -34 -128 -36 -218 -7 -342 14 -59 38 -127 52 -151 20 -34
26 -61 29 -117 6 -116 35 -193 101 -267 104 -115 198 -143 460 -137 158 3 177
2 284 -24 102 -25 135 -28 290 -29 274 -2 495 39 626 115 67 40 149 134 169
196 10 29 19 54 20 56 2 2 47 -8 101 -22 85 -21 124 -25 274 -26 210 -1 359
17 489 60 120 39 167 68 235 141 70 75 97 152 102 287 2 51 8 100 13 110 19
36 71 248 70 287 -1 76 -30 250 -48 290 l-18 41 86 22 c133 34 199 71 276 154
78 85 86 98 115 202 17 62 21 93 16 140 -10 92 -42 196 -87 282 l-40 78 22 51
c31 69 37 189 14 275 -36 137 -133 262 -282 363 -50 34 -69 55 -100 110 -20
37 -56 86 -80 108 -24 21 -57 67 -74 102 -45 88 -84 143 -148 210 -72 76 -132
106 -225 115 l-72 7 -68 77 c-76 88 -257 247 -346 304 -33 22 -60 42 -60 45 0
4 11 10 24 13 14 3 45 22 70 41 38 29 55 35 95 35 74 0 199 27 257 55 41 20
66 25 130 25 137 0 247 38 331 114 63 57 109 124 128 190 8 28 26 66 40 86 13
19 28 55 34 80 5 24 14 46 19 48 33 11 175 100 230 145 68 55 159 171 206 262
14 28 38 95 53 150 63 231 17 524 -112 715 -79 117 -168 194 -304 261 -58 29
-218 73 -306 84 l-51 7 -18 80 c-10 44 -14 84 -9 89 4 4 52 24 106 43 147 54
402 162 494 211 98 51 223 142 251 182 11 16 27 56 34 89 27 118 -17 220 -127
292 -193 127 -455 197 -846 227 l-85 6 -17 92 c-45 240 -116 410 -239 568
-152 197 -360 318 -623 363 -107 19 -309 19 -415 1z m380 -239 c314 -52 539
-269 621 -596 11 -45 17 -85 14 -90 -4 -6 -2 -10 3 -10 6 0 12 -16 14 -35 3
-25 0 -34 -8 -31 -7 3 -15 -5 -18 -16 -6 -24 0 -38 16 -38 7 0 6 5 -1 14 -8
10 -9 16 -1 21 14 9 32 -43 23 -69 -10 -30 -10 -40 2 -48 7 -5 6 -8 -1 -8 -17
0 -37 27 -25 34 6 4 7 14 4 23 -5 12 -3 14 7 8 9 -5 11 -4 6 3 -11 18 -26 14
-27 -5 0 -13 -3 -11 -10 6 -5 14 -8 38 -6 55 2 17 1 38 -3 46 -12 26 -21 87
-10 70 5 -8 10 -13 11 -10 0 3 2 19 4 35 3 27 2 28 -9 12 -11 -13 -16 -15 -24
-5 -13 17 -43 88 -36 88 3 0 -4 10 -15 21 -14 15 -19 31 -16 53 4 24 3 26 -3
8 l-7 -24 -23 31 c-13 17 -20 36 -17 41 4 6 -1 7 -11 3 -13 -5 -16 -3 -11 10
3 9 -1 21 -11 29 -11 9 -14 10 -8 1 12 -21 -2 -15 -34 13 -16 15 -27 31 -23
37 3 6 1 7 -5 3 -6 -3 -34 8 -62 25 -81 50 -184 78 -292 80 -51 1 -100 -1
-108 -4 -80 -28 -108 -29 -94 -4 4 7 4 9 -1 5 -4 -4 -14 -3 -21 3 -9 7 -12 6
-9 -8 1 -10 8 -17 14 -15 6 1 11 -2 11 -7 0 -5 -19 -17 -42 -26 -77 -31 -74
-30 -61 -14 10 13 10 16 -2 16 -8 0 -13 -3 -11 -6 2 -3 0 -15 -5 -26 -6 -17
-8 -16 -9 10 -1 17 -4 24 -7 18 -2 -7 -13 -13 -23 -13 -9 0 -23 -7 -30 -15
-10 -12 -16 -13 -28 -3 -14 11 -15 10 -8 -7 5 -15 4 -17 -5 -8 -13 13 -3 37
12 28 5 -4 9 -2 9 4 0 6 8 8 18 5 14 -5 14 -3 -3 11 -11 9 -20 20 -20 25 0 4
-3 12 -7 16 -5 4 -8 1 -8 -7 0 -8 5 -20 12 -27 16 -16 -4 -16 -22 1 -12 10
-12 9 -1 -5 7 -10 11 -18 8 -18 -3 0 -14 -3 -24 -6 -15 -5 -15 -4 -3 5 9 7 10
11 3 11 -6 0 -10 9 -8 19 3 15 -1 18 -13 14 -14 -5 -14 -2 3 18 l20 24 -22
-19 c-25 -21 -29 -16 -13 15 14 25 3 44 -15 29 -21 -17 -58 -22 -52 -6 4 9 -1
13 -11 11 -9 -1 -23 3 -31 9 -11 8 -13 8 -8 0 4 -7 -1 -18 -10 -25 -15 -12
-16 -12 -11 3 5 11 2 15 -9 14 -9 -2 -20 -11 -24 -22 -6 -14 -8 -15 -9 -4 -2
8 -2 17 -2 21 0 3 -10 5 -24 5 -16 0 -21 -3 -14 -10 6 -6 10 -15 10 -20 -1 -6
-9 -1 -19 11 -16 19 -20 20 -25 7 -3 -8 -10 -12 -16 -9 -5 3 -10 1 -10 -4 0
-6 5 -11 12 -11 15 0 0 -15 -15 -15 -7 0 -17 6 -24 15 -10 13 -11 11 -6 -8 3
-13 11 -21 17 -19 6 2 16 -5 23 -17 7 -12 12 -15 13 -7 0 11 3 11 16 1 8 -8
14 -9 13 -4 -4 21 3 22 34 9 32 -13 39 -15 55 -15 5 0 9 -8 9 -17 0 -16 -1
-16 -11 -1 -9 15 -11 15 -23 0 -12 -16 -13 -16 -7 1 4 12 1 17 -11 17 -12 0
-15 -5 -10 -22 7 -23 7 -23 -8 -3 -11 15 -12 22 -4 27 9 6 9 8 0 8 -6 0 -24
-15 -38 -32 -15 -18 -24 -28 -21 -21 8 15 -4 44 -15 37 -5 -3 -6 -10 -3 -16 4
-7 2 -8 -5 -4 -6 4 -9 12 -6 17 4 5 -1 9 -9 9 -13 0 -14 -5 -5 -27 8 -21 7
-25 -1 -17 -6 6 -12 21 -13 33 -1 11 -5 21 -10 21 -5 0 -7 -8 -4 -19 4 -15 -1
-18 -27 -16 -17 2 -34 -2 -38 -8 -5 -8 -8 -6 -8 4 0 9 7 19 15 23 8 3 15 2 15
-3 0 -4 7 -8 15 -8 8 0 15 4 15 9 0 4 -5 8 -12 8 -6 0 -3 6 7 14 15 11 17 17
7 28 -6 8 -9 18 -5 21 3 4 12 -1 20 -11 13 -15 13 -15 4 5 -8 16 -7 22 4 27 8
3 15 11 15 17 0 8 -4 9 -13 0 -8 -6 -18 -7 -22 -3 -5 4 -5 2 -1 -5 4 -8 -5
-14 -30 -19 -42 -8 -55 -31 -29 -50 10 -8 16 -17 12 -20 -4 -4 -14 -1 -24 7
-11 9 -14 10 -9 1 4 -7 4 -21 1 -33 -5 -15 -10 -17 -19 -10 -17 14 -29 2 -15
-15 7 -8 6 -14 -2 -20 -7 -4 -9 -3 -6 3 4 6 0 16 -8 23 -17 14 -3 50 19 50 8
0 17 7 20 16 10 25 1 27 -19 4 -20 -22 -35 -26 -35 -10 0 6 7 10 17 10 9 0 13
3 10 7 -16 16 236 133 277 129 15 -2 23 1 20 9 -6 16 147 62 283 85 133 22
261 24 373 6z m153 -326 c131 -41 249 -145 312 -275 44 -92 57 -160 53 -270
l-3 -90 -54 -13 c-64 -16 -76 -8 -37 23 20 16 27 28 22 40 -20 53 -281 496
-284 484 -7 -20 -123 -283 -127 -288 -2 -2 -57 47 -122 108 l-118 111 -37
-283 c-21 -155 -36 -287 -34 -293 3 -6 22 -15 43 -18 21 -4 56 -12 78 -18 l40
-10 -115 -40 c-166 -57 -150 -57 -187 4 -132 223 -117 476 41 670 123 151 340
216 529 158z m93 -566 c23 -60 40 -112 38 -115 -2 -4 -16 -10 -31 -13 -16 -4
-97 -25 -181 -48 -84 -22 -154 -39 -156 -37 -10 10 -18 269 -9 269 6 0 49 -36
97 -81 l86 -81 18 44 c10 23 31 74 47 111 15 37 33 66 38 64 6 -2 29 -52 53
-113z m437 -733 c93 -87 151 -212 191 -401 8 -41 12 -78 8 -82 -4 -3 -19 -9
-33 -13 -25 -6 -27 -4 -38 57 -47 249 -156 367 -247 267 -29 -32 -44 -84 -49
-166 -3 -67 16 -250 33 -308 8 -27 4 -36 -43 -90 -63 -73 -82 -101 -129 -187
-36 -66 -36 -96 -1 -40 28 42 136 145 208 196 82 58 195 111 284 132 83 20
285 14 378 -10 271 -72 428 -285 429 -581 0 -265 -158 -477 -423 -568 -72 -25
-107 -30 -214 -35 -296 -11 -542 65 -692 216 -38 39 -44 41 -132 51 -190 23
-384 101 -588 237 -159 107 -194 115 -242 60 -142 -161 -133 -467 17 -630 43
-46 128 -96 165 -96 17 0 21 -7 23 -50 12 -283 226 -441 502 -371 l84 21 23
-22 c13 -12 23 -25 23 -29 0 -10 -166 -64 -274 -89 -140 -32 -277 -43 -475
-37 -212 6 -344 27 -517 82 -188 59 -363 151 -471 248 l-38 34 -115 -25 c-95
-20 -143 -25 -275 -25 -188 -1 -261 15 -414 88 -79 38 -108 59 -176 128 -87
88 -120 138 -161 251 -34 90 -39 248 -12 336 52 164 187 307 353 370 84 32
257 40 341 15 126 -37 182 -80 247 -190 102 -176 253 -341 362 -398 54 -28
149 -28 196 -1 52 31 97 97 105 154 4 28 12 50 18 50 23 0 85 61 105 103 56
115 -3 240 -140 301 -96 42 -167 148 -234 348 -45 134 -45 142 -2 135 140 -25
290 -15 484 33 204 50 390 120 977 369 431 183 497 210 514 211 7 0 37 -22 65
-49z m140 -3325 c83 -34 207 -237 242 -396 24 -108 23 -224 -2 -258 -31 -42
-81 -42 -128 -1 -116 102 -211 324 -222 521 -6 103 -1 121 42 138 28 12 31 12
68 -4z m-799 -127 c77 -28 148 -96 188 -177 31 -63 33 -73 33 -177 0 -99 -3
-115 -27 -165 -37 -75 -107 -146 -176 -178 -48 -23 -71 -27 -142 -27 -101 0
-154 20 -224 85 -138 128 -165 329 -65 495 84 140 260 202 413 144z m-1584
-317 c130 -34 235 -85 294 -140 39 -38 76 -107 76 -144 0 -18 -4 -20 -37 -14
-81 14 -149 17 -178 8 -27 -9 -28 -10 -10 -17 11 -4 29 -10 40 -14 45 -16 183
-86 220 -112 110 -74 213 -210 250 -331 22 -68 30 -194 16 -244 -24 -90 -136
-169 -257 -181 l-55 -6 7 29 c3 16 15 49 26 74 30 71 2 122 -56 100 -36 -13
-58 -64 -90 -202 -36 -157 -7 -278 66 -278 39 0 67 76 36 97 -11 6 139 33 150
27 6 -4 -33 -110 -54 -147 -25 -44 -87 -112 -130 -143 -130 -93 -354 -138
-574 -115 -98 10 -238 40 -285 60 -106 48 -139 66 -191 104 -155 114 -231 231
-270 417 -20 98 -20 274 1 365 19 81 65 182 108 240 65 85 208 202 277 227 17
5 30 16 30 23 0 33 -85 33 -167 1 -69 -27 -72 -25 -69 40 3 52 40 102 114 150
62 42 198 96 282 113 30 6 75 15 100 20 54 11 281 6 330 -7z m2955 -244 c99
-92 130 -153 123 -242 -6 -74 -40 -132 -111 -190 -56 -46 -168 -101 -243 -120
-63 -16 -208 -22 -202 -8 2 4 27 54 55 112 29 58 63 145 76 193 19 75 27 90
53 106 65 39 134 149 134 212 0 30 37 10 115 -63z m150 -643 c99 -209 55 -351
-131 -430 -48 -21 -208 -32 -218 -16 -4 6 -17 11 -29 11 -11 0 -38 16 -58 36
-53 51 -226 105 -362 112 l-98 4 63 67 c35 36 87 94 116 127 53 61 53 62 91
53 103 -23 198 -16 326 23 86 26 159 59 205 91 42 31 44 29 95 -78z m-450
-1392 c-2 -10 -7 -40 -10 -66 -18 -141 -209 -212 -570 -212 -174 0 -275 13
-357 44 -25 10 -26 11 -14 50 6 22 14 42 17 46 3 3 91 7 195 10 331 8 577 48
676 110 61 40 67 41 63 18z m-1190 -320 c-2 -10 -7 -40 -10 -66 -18 -141 -209
-212 -565 -212 -180 0 -270 11 -365 46 -42 15 -63 17 -130 10 -108 -12 -301
-6 -349 11 -54 18 -97 74 -104 134 l-5 47 34 -26 c59 -44 134 -59 349 -65 600
-18 943 15 1082 103 61 40 67 41 63 18z"/>
<path d="M3064 6730 c-64 -25 -89 -118 -81 -295 14 -307 136 -514 250 -424 93
72 69 479 -37 647 -38 61 -90 89 -132 72z"/>
<path d="M1025 5750 c-3 -6 2 -13 12 -16 124 -40 235 -114 294 -195 l18 -26
-67 4 c-41 3 -78 0 -97 -8 l-30 -12 47 -8 c265 -42 322 -227 105 -341 -32 -17
-62 -23 -125 -25 -45 -1 -82 -5 -82 -8 0 -3 0 -10 0 -16 0 -18 67 -39 124 -39
82 0 175 33 230 81 68 60 90 108 91 195 0 62 -5 79 -39 150 -69 138 -188 233
-334 263 -66 14 -139 14 -147 1z"/>
<path d="M1088 2610 c-26 -16 -98 -272 -98 -350 0 -101 68 -158 135 -114 54
36 66 96 52 279 -14 178 -33 217 -89 185z"/>
<path d="M1476 2566 c-9 -18 -17 -42 -19 -52 -1 -11 -5 -23 -9 -29 -3 -5 -18
-58 -33 -117 -21 -79 -26 -118 -21 -151 8 -50 42 -92 80 -99 28 -6 75 12 94
34 15 18 40 98 37 118 -2 14 -13 124 -20 202 -9 99 -23 128 -65 128 -22 0 -31
-7 -44 -34z"/>
</g>
</svg>
